<?xml version="1.0" encoding="utf-8"?>
<!-- Generator: Adobe Illustrator 25.0.0, SVG Export Plug-In . SVG Version: 6.00 Build 0)  -->
<svg version="1.1" id="Layer_1" xmlns="http://www.w3.org/2000/svg" xmlns:xlink="http://www.w3.org/1999/xlink" x="0px" y="0px"
	 viewBox="0 0 147 30.1" style="enable-background:new 0 0 147 30.1;" xml:space="preserve">
<style type="text/css">
	.st0{fill-rule:evenodd;clip-rule:evenodd;fill:#75787B;}
	.st1{filter:url(#Adobe_OpacityMaskFilter);}
	.st2{fill-rule:evenodd;clip-rule:evenodd;fill:#FFFFFF;}
	.st3{mask:url(#mask-2_30_);fill-rule:evenodd;clip-rule:evenodd;fill:#DBE442;}
	.st4{filter:url(#Adobe_OpacityMaskFilter_1_);}
	.st5{mask:url(#mask-2_29_);fill-rule:evenodd;clip-rule:evenodd;fill:#59CBE8;}
	.st6{filter:url(#Adobe_OpacityMaskFilter_2_);}
	.st7{mask:url(#mask-2_28_);fill-rule:evenodd;clip-rule:evenodd;fill:#E4002B;}
	.st8{filter:url(#Adobe_OpacityMaskFilter_3_);}
	.st9{mask:url(#mask-2_27_);fill-rule:evenodd;clip-rule:evenodd;fill:#FFBF3F;}
	.st10{filter:url(#Adobe_OpacityMaskFilter_4_);}
	.st11{mask:url(#mask-2_26_);fill-rule:evenodd;clip-rule:evenodd;fill:#FFFFFF;}
	.st12{filter:url(#Adobe_OpacityMaskFilter_5_);}
	.st13{mask:url(#mask-2_25_);fill-rule:evenodd;clip-rule:evenodd;fill:#FFFFFF;}
	.st14{filter:url(#Adobe_OpacityMaskFilter_6_);}
	.st15{mask:url(#mask-2_24_);fill-rule:evenodd;clip-rule:evenodd;fill:#FFFFFF;}
	.st16{filter:url(#Adobe_OpacityMaskFilter_7_);}
	.st17{mask:url(#mask-2_23_);fill-rule:evenodd;clip-rule:evenodd;fill:#FFFFFF;}
	.st18{filter:url(#Adobe_OpacityMaskFilter_8_);}
	.st19{mask:url(#mask-2_22_);fill-rule:evenodd;clip-rule:evenodd;fill:#FFFFFF;}
	.st20{filter:url(#Adobe_OpacityMaskFilter_9_);}
	.st21{mask:url(#mask-2_21_);fill-rule:evenodd;clip-rule:evenodd;fill:#FFBF3F;}
	.st22{filter:url(#Adobe_OpacityMaskFilter_10_);}
	.st23{mask:url(#mask-2_20_);fill-rule:evenodd;clip-rule:evenodd;fill:#8246AF;}
	.st24{filter:url(#Adobe_OpacityMaskFilter_11_);}
	.st25{mask:url(#mask-2_19_);fill-rule:evenodd;clip-rule:evenodd;fill:#F04E98;}
	.st26{filter:url(#Adobe_OpacityMaskFilter_12_);}
	.st27{mask:url(#mask-2_18_);fill-rule:evenodd;clip-rule:evenodd;fill:#59CBE8;}
	.st28{filter:url(#Adobe_OpacityMaskFilter_13_);}
	.st29{mask:url(#mask-2_17_);fill-rule:evenodd;clip-rule:evenodd;fill:#DBE442;}
	.st30{filter:url(#Adobe_OpacityMaskFilter_14_);}
	.st31{mask:url(#mask-2_16_);fill-rule:evenodd;clip-rule:evenodd;fill:#E4002B;}
</style>
<g>
	<path id="Fill-1" class="st0" d="M143.3,11.9v0.8h0.6c0.3,0,0.6-0.1,0.6-0.4c0-0.4-0.2-0.5-0.6-0.5
		C143.6,11.9,143.4,11.9,143.3,11.9 M145.3,14.5h-0.7l-0.5-1.1c-0.1-0.1-0.1-0.1-0.2-0.1h-0.6v1.2h-0.6v-3.1c0.5,0,0.8,0,1.2,0
		c0.7,0,1.3,0.2,1.3,1c0,0.4-0.2,0.7-0.5,0.8C144.9,13.6,145.2,14.4,145.3,14.5 M141.3,12.9c0,1.3,1.1,2.4,2.6,2.4
		c1.4,0,2.6-1.1,2.6-2.4c0-1.3-1.1-2.4-2.6-2.4C142.4,10.5,141.3,11.6,141.3,12.9 M140.7,12.9c0-1.7,1.4-3,3.1-3
		c1.7,0,3.1,1.3,3.1,3c0,1.6-1.4,3-3.1,3C142.1,15.9,140.7,14.5,140.7,12.9"/>
	<g id="Clip-4">
	</g>
	<defs>
		<filter id="Adobe_OpacityMaskFilter" filterUnits="userSpaceOnUse" x="105.1" y="4.5" width="3.7" height="19.6">
			<feColorMatrix  type="matrix" values="1 0 0 0 0  0 1 0 0 0  0 0 1 0 0  0 0 0 1 0"/>
		</filter>
	</defs>
	<mask maskUnits="userSpaceOnUse" x="105.1" y="4.5" width="3.7" height="19.6" id="mask-2_30_">
		<g class="st1">
			<polygon id="path-1_30_" class="st2" points="0,30.1 147,30.1 147,0 0,0 			"/>
		</g>
	</mask>
	<polygon id="Fill-3" class="st3" points="105.1,24.1 108.8,24.1 108.8,4.5 105.1,4.5 	"/>
	<defs>
		<filter id="Adobe_OpacityMaskFilter_1_" filterUnits="userSpaceOnUse" x="89.7" y="9.9" width="13.1" height="19.6">
			<feColorMatrix  type="matrix" values="1 0 0 0 0  0 1 0 0 0  0 0 1 0 0  0 0 0 1 0"/>
		</filter>
	</defs>
	<mask maskUnits="userSpaceOnUse" x="89.7" y="9.9" width="13.1" height="19.6" id="mask-2_29_">
		<g class="st4">
			<polygon id="path-1_29_" class="st2" points="0,30.1 147,30.1 147,0 0,0 			"/>
		</g>
	</mask>
	<path id="Fill-5" class="st5" d="M96.9,24.2c-1.6,0-2.5-0.4-3.4-1.7h-0.1v6.9h-3.8V10.2h3.2l0.2,1.6h0.1c1-1.4,2.2-1.9,3.8-1.9
		c4.1,0,5.8,3.3,5.8,7C102.8,20.8,101.2,24.2,96.9,24.2 M96,13.1c-1.6,0-2.6,0.6-2.6,2.4v3c0,1.9,0.6,3.1,2.6,3.1
		c2.5,0,2.8-2.3,2.8-4.4C98.8,15,98.5,13.1,96,13.1"/>
	<defs>
		<filter id="Adobe_OpacityMaskFilter_2_" filterUnits="userSpaceOnUse" x="123.9" y="10.2" width="14.5" height="19.9">
			<feColorMatrix  type="matrix" values="1 0 0 0 0  0 1 0 0 0  0 0 1 0 0  0 0 0 1 0"/>
		</filter>
	</defs>
	<mask maskUnits="userSpaceOnUse" x="123.9" y="10.2" width="14.5" height="19.9" id="mask-2_28_">
		<g class="st6">
			<polygon id="path-1_28_" class="st2" points="0,30.1 147,30.1 147,0 0,0 			"/>
		</g>
	</mask>
	<path id="Fill-6" class="st7" d="M132.8,24.5c-1.8,4.6-2.7,5.6-6,5.6c-0.5,0-1.1,0-2.1-0.1v-3.2c0.2,0,0.7,0.1,1.5,0.1
		c1.5,0,1.8-0.4,2.3-1.6l0.6-1.6l-5.3-13.4h4.2l3.2,9.5h0.1l3.1-9.5h4.1L132.8,24.5z"/>
	<defs>
		<filter id="Adobe_OpacityMaskFilter_3_" filterUnits="userSpaceOnUse" x="110.8" y="9.9" width="13.4" height="14.2">
			<feColorMatrix  type="matrix" values="1 0 0 0 0  0 1 0 0 0  0 0 1 0 0  0 0 0 1 0"/>
		</filter>
	</defs>
	<mask maskUnits="userSpaceOnUse" x="110.8" y="9.9" width="13.4" height="14.2" id="mask-2_27_">
		<g class="st8">
			<polygon id="path-1_27_" class="st2" points="0,30.1 147,30.1 147,0 0,0 			"/>
		</g>
	</mask>
	<path id="Fill-7" class="st9" d="M119.3,20.5c-0.9,0.6-1.9,1.1-3.1,1.1c-1.1,0-1.8-0.7-1.8-1.8c0-2.4,3.1-2.4,4.8-2.4V20.5z
		 M123.1,20.6V20c0,0,0,0,0,0v-4.6c0-3.9-1.5-5.5-5.4-5.5c-2.4,0-4.4,0.5-6.5,1.6l1.2,2.6c1.5-0.8,3.2-1.4,5-1.4c1.4,0,2,0.4,2,1.7
		v0.6c-3.4,0-8.5,0.4-8.5,4.9c0,2.6,1.8,4.1,4.4,4.1c1.7,0,3.2-0.6,4.5-1.6c0,0.1,0,0.2,0,0.2c0.4,1.3,2.7,1.4,4.3,1.3l0.1-2.9
		C123.5,21.1,123.1,21,123.1,20.6L123.1,20.6z"/>
	<defs>
		<filter id="Adobe_OpacityMaskFilter_4_" filterUnits="userSpaceOnUse" x="42.7" y="9.9" width="14" height="14.2">
			<feColorMatrix  type="matrix" values="1 0 0 0 0  0 1 0 0 0  0 0 1 0 0  0 0 0 1 0"/>
		</filter>
	</defs>
	<mask maskUnits="userSpaceOnUse" x="42.7" y="9.9" width="14" height="14.2" id="mask-2_26_">
		<g class="st10">
			<polygon id="path-1_26_" class="st2" points="0,30.1 147,30.1 147,0 0,0 			"/>
		</g>
	</mask>
	<path id="Fill-8" class="st11" d="M49.7,24.1c-4.7,0-7-2.9-7-7.1c0-4,2-7.1,7-7.1c4.6,0,7,2.7,7,7.1C56.7,21.2,54.5,24.1,49.7,24.1
		 M49.8,13.1c-2.4,0-3.1,1.4-3.1,4.1c0,2.7,0.8,4.2,3.2,4.2c2.3,0,3.1-1.5,3.1-4.2C53,14.5,52.2,13.1,49.8,13.1"/>
	<defs>
		<filter id="Adobe_OpacityMaskFilter_5_" filterUnits="userSpaceOnUse" x="30.8" y="5.7" width="14.2" height="18.4">
			<feColorMatrix  type="matrix" values="1 0 0 0 0  0 1 0 0 0  0 0 1 0 0  0 0 0 1 0"/>
		</filter>
	</defs>
	<mask maskUnits="userSpaceOnUse" x="30.8" y="5.7" width="14.2" height="18.4" id="mask-2_25_">
		<g class="st12">
			<polygon id="path-1_25_" class="st2" points="0,30.1 147,30.1 147,0 0,0 			"/>
		</g>
	</mask>
	<polygon id="Fill-9" class="st13" points="30.8,5.7 30.8,9.1 35.9,9.1 35.9,24.1 39.9,24.1 39.9,9.1 45,9.1 45,5.7 	"/>
	<defs>
		<filter id="Adobe_OpacityMaskFilter_6_" filterUnits="userSpaceOnUse" x="57.8" y="6.5" width="9.1" height="17.6">
			<feColorMatrix  type="matrix" values="1 0 0 0 0  0 1 0 0 0  0 0 1 0 0  0 0 0 1 0"/>
		</filter>
	</defs>
	<mask maskUnits="userSpaceOnUse" x="57.8" y="6.5" width="9.1" height="17.6" id="mask-2_24_">
		<g class="st14">
			<polygon id="path-1_24_" class="st2" points="0,30.1 147,30.1 147,0 0,0 			"/>
		</g>
	</mask>
	<path id="Fill-10" class="st15" d="M65.9,20.9c-1.9,0-2.1-0.2-2.1-1.4c0-0.1,0-0.1,0-0.2v-6.1h3.1v-3.1h-3.1V6.5h-3.7v3.6h-2.2v3.1
		H60v6.5c0,3.3,0.9,4.3,4.6,4.3c0.7,0,1.3-0.1,2.3-0.2v-3.1C66.6,20.9,66.4,20.9,65.9,20.9"/>
	<defs>
		<filter id="Adobe_OpacityMaskFilter_7_" filterUnits="userSpaceOnUse" x="83.7" y="4.5" width="3.7" height="19.6">
			<feColorMatrix  type="matrix" values="1 0 0 0 0  0 1 0 0 0  0 0 1 0 0  0 0 0 1 0"/>
		</filter>
	</defs>
	<mask maskUnits="userSpaceOnUse" x="83.7" y="4.5" width="3.7" height="19.6" id="mask-2_23_">
		<g class="st16">
			<polygon id="path-1_23_" class="st2" points="0,30.1 147,30.1 147,0 0,0 			"/>
		</g>
	</mask>
	<polygon id="Fill-11" class="st17" points="83.7,24.1 87.4,24.1 87.4,4.5 83.7,4.5 	"/>
	<defs>
		<filter id="Adobe_OpacityMaskFilter_8_" filterUnits="userSpaceOnUse" x="68.4" y="9.9" width="13.4" height="14.2">
			<feColorMatrix  type="matrix" values="1 0 0 0 0  0 1 0 0 0  0 0 1 0 0  0 0 0 1 0"/>
		</filter>
	</defs>
	<mask maskUnits="userSpaceOnUse" x="68.4" y="9.9" width="13.4" height="14.2" id="mask-2_22_">
		<g class="st18">
			<polygon id="path-1_22_" class="st2" points="0,30.1 147,30.1 147,0 0,0 			"/>
		</g>
	</mask>
	<path id="Fill-12" class="st19" d="M76.9,20.5c-0.9,0.6-1.9,1.1-3.1,1.1c-1.1,0-1.8-0.7-1.8-1.8c0-2.4,3.1-2.4,4.8-2.4V20.5z
		 M80.6,20.6V20c0,0,0,0,0,0v-4.6c0-3.9-1.5-5.5-5.4-5.5c-2.4,0-4.4,0.5-6.5,1.6l1.2,2.6c1.5-0.8,3.2-1.4,5-1.4c1.4,0,2,0.4,2,1.7
		v0.6c-3.4,0-8.5,0.4-8.5,4.9c0,2.6,1.8,4.1,4.4,4.1c1.7,0,3.2-0.6,4.5-1.6c0,0.1,0,0.2,0,0.2c0.4,1.3,2.7,1.4,4.3,1.3l0.1-2.9
		C81,21.1,80.6,21,80.6,20.6L80.6,20.6z"/>
	<defs>
		<filter id="Adobe_OpacityMaskFilter_9_" filterUnits="userSpaceOnUse" x="0" y="0" width="8.3" height="9.1">
			<feColorMatrix  type="matrix" values="1 0 0 0 0  0 1 0 0 0  0 0 1 0 0  0 0 0 1 0"/>
		</filter>
	</defs>
	<mask maskUnits="userSpaceOnUse" x="0" y="0" width="8.3" height="9.1" id="mask-2_21_">
		<g class="st20">
			<polygon id="path-1_21_" class="st2" points="0,30.1 147,30.1 147,0 0,0 			"/>
		</g>
	</mask>
	<path id="Fill-13" class="st21" d="M7.9,5.1c0.5-0.3,0.5-0.8,0-1.1L1,0.1C0.4-0.2,0,0.1,0,0.7v7.7C0,9,0.4,9.2,1,9L7.9,5.1z"/>
	<defs>
		<filter id="Adobe_OpacityMaskFilter_10_" filterUnits="userSpaceOnUse" x="0" y="9.9" width="8.3" height="9.1">
			<feColorMatrix  type="matrix" values="1 0 0 0 0  0 1 0 0 0  0 0 1 0 0  0 0 0 1 0"/>
		</filter>
	</defs>
	<mask maskUnits="userSpaceOnUse" x="0" y="9.9" width="8.3" height="9.1" id="mask-2_20_">
		<g class="st22">
			<polygon id="path-1_20_" class="st2" points="0,30.1 147,30.1 147,0 0,0 			"/>
		</g>
	</mask>
	<path id="Fill-14" class="st23" d="M7.9,15c0.5-0.3,0.5-0.8,0-1.1L1,10.1C0.4,9.8,0,10,0,10.6v7.7c0,0.6,0.4,0.8,1,0.5L7.9,15z"/>
	<defs>
		<filter id="Adobe_OpacityMaskFilter_11_" filterUnits="userSpaceOnUse" x="0" y="20.4" width="8.3" height="9.1">
			<feColorMatrix  type="matrix" values="1 0 0 0 0  0 1 0 0 0  0 0 1 0 0  0 0 0 1 0"/>
		</filter>
	</defs>
	<mask maskUnits="userSpaceOnUse" x="0" y="20.4" width="8.3" height="9.1" id="mask-2_19_">
		<g class="st24">
			<polygon id="path-1_19_" class="st2" points="0,30.1 147,30.1 147,0 0,0 			"/>
		</g>
	</mask>
	<path id="Fill-15" class="st25" d="M7.9,25.5c0.5-0.3,0.5-0.8,0-1.1L1,20.6c-0.5-0.3-1-0.1-1,0.5v7.7c0,0.6,0.4,0.8,1,0.5L7.9,25.5
		z"/>
	<defs>
		<filter id="Adobe_OpacityMaskFilter_12_" filterUnits="userSpaceOnUse" x="8.8" y="5.1" width="8.3" height="9.1">
			<feColorMatrix  type="matrix" values="1 0 0 0 0  0 1 0 0 0  0 0 1 0 0  0 0 0 1 0"/>
		</filter>
	</defs>
	<mask maskUnits="userSpaceOnUse" x="8.8" y="5.1" width="8.3" height="9.1" id="mask-2_18_">
		<g class="st26">
			<polygon id="path-1_18_" class="st2" points="0,30.1 147,30.1 147,0 0,0 			"/>
		</g>
	</mask>
	<path id="Fill-16" class="st27" d="M8.8,13.5c0,0.6,0.4,0.8,1,0.5l6.9-3.9c0.5-0.3,0.5-0.8,0-1.1L9.8,5.2c-0.5-0.3-1-0.1-1,0.5
		V13.5z"/>
	<defs>
		<filter id="Adobe_OpacityMaskFilter_13_" filterUnits="userSpaceOnUse" x="8.8" y="15.3" width="8.3" height="9.1">
			<feColorMatrix  type="matrix" values="1 0 0 0 0  0 1 0 0 0  0 0 1 0 0  0 0 0 1 0"/>
		</filter>
	</defs>
	<mask maskUnits="userSpaceOnUse" x="8.8" y="15.3" width="8.3" height="9.1" id="mask-2_17_">
		<g class="st28">
			<polygon id="path-1_17_" class="st2" points="0,30.1 147,30.1 147,0 0,0 			"/>
		</g>
	</mask>
	<path id="Fill-17" class="st29" d="M8.8,23.7c0,0.6,0.4,0.8,1,0.5l6.9-3.9c0.5-0.3,0.5-0.8,0-1.1l-6.9-3.9c-0.5-0.3-1-0.1-1,0.5
		V23.7z"/>
	<defs>
		<filter id="Adobe_OpacityMaskFilter_14_" filterUnits="userSpaceOnUse" x="17.9" y="9.9" width="8.3" height="9.1">
			<feColorMatrix  type="matrix" values="1 0 0 0 0  0 1 0 0 0  0 0 1 0 0  0 0 0 1 0"/>
		</filter>
	</defs>
	<mask maskUnits="userSpaceOnUse" x="17.9" y="9.9" width="8.3" height="9.1" id="mask-2_16_">
		<g class="st30">
			<polygon id="path-1_16_" class="st2" points="0,30.1 147,30.1 147,0 0,0 			"/>
		</g>
	</mask>
	<path id="Fill-18" class="st31" d="M17.9,18.3c0,0.6,0.4,0.8,1,0.5l6.9-3.9c0.5-0.3,0.5-0.8,0-1.1l-6.9-3.9c-0.5-0.3-1-0.1-1,0.5
		V18.3z"/>
</g>
</svg>
